:SAMPLES-PER-SECOND 30
:FULLY-SPECIFIED
:DEGREES
242
root  -64.1706 40.8128 -0.557636 173.767 -84.4981 -178.582
RightUpLeg  -6.83343 -8.94891 -0.713146
RightLeg  12.2718 -8.17798 4.75705
RightFoot  -0.633014 0.480648 -5.16473
RightToes  -1.33073e-015 0 -3.6325e-017
Spine  12.7166 0.677057 9.15564
Spine1  1.21279 1.70595 -0.571313
HEad  -2.75442 5.83186 -2.93472
LeftShoulder1  8.02961 -12.1702 -44.6167
LeftArm  -11.3591 19.7228 -21.7349
LeftForeArm  36.2023 -9.39899 -4.08872
LeftHand  -0.244104 0.0205437 5.32207
RightShoulder  4.05375 7.62894 30.4582
RightArm  -18.0133 -12.5448 30.6117
RightForeArm  8.82035 17.0591 4.13854
RightHand  -1.84084 5.955 -18.9768
LeftUpLeg  -17.0427 7.57626 0.140762
LeftLeg  33.2908 5.60344 4.32585
LeftFoot  -5.76922 0.118427 -1.73221
LeftToes  -7.82198e-011 2.46994e-011 -7.94165e-012
243
root  -64.9012 40.9317 -0.582067 176.37 -83.4623 178.614
RightUpLeg  -5.0345 -8.96143 -1.06043
RightLeg  11.518 -6.87868 4.80738
RightFoot  -1.4299 0.417253 -4.92066
RightToes  -1.33073e-015 0 -3.6325e-017
Spine  12.605 1.28215 9.63677
Spine1  1.4288 2.5817 -1.89912
HEad  -3.14592 5.70409 -2.69433
LeftShoulder1  7.19384 -11.4802 -41.6519
LeftArm  -12.4122 19.6784 -19.6878
LeftForeArm  34.7169 -8.4454 -3.54389
LeftHand  -0.244104 0.0205437 5.32207
RightShoulder  3.84506 7.39492 29.3016
RightArm  -19.2233 -10.847 27.1397
RightForeArm  8.59368 15.9443 4.02446
RightHand  -1.79084 5.75317 -18.7988
LeftUpLeg  -14.9071 9.03777 -0.539091
LeftLeg  22.508 4.20077 2.28448
LeftFoot  -4.68355 0.264358 -3.96048
LeftToes  -7.82198e-011 2.46994e-011 -7.94165e-012
244
root  -65.642 40.9935 -0.579054 174.613 -82.7032 179.951
RightUpLeg  -3.33792 -9.05154 -1.25539
RightLeg  11.4976 -5.84498 5.00987
RightFoot  -2.40972 0.367647 -4.91124
RightToes  -1.33073e-015 0 -3.6325e-017
Spine  12.0878 1.68485 10.1302
Spine1  2.06368 3.16923 -2.64018
HEad  -2.61435 5.9959 -2.54235
LeftShoulder1  6.38407 -10.7106 -38.7251
LeftArm  -13.2987 19.5687 -17.2238
LeftForeArm  32.9392 -7.94637 -3.03348
LeftHand  -0.244104 0.0205437 5.32207
RightShoulder  3.46287 6.81689 27.5211
RightArm  -20.3686 -9.01904 23.4894
RightForeArm  8.09635 14.207 3.8687
RightHand  -1.73917 5.56642 -18.5727
LeftUpLeg  -12.3991 11.2634 -1.06135
LeftLeg  14.4085 2.98884 0.907491
LeftFoot  -1.1738 0.313076 -3.59631
LeftToes  -7.82198e-011 2.46994e-011 -7.94165e-012
245
root  -66.3731 41.0138 -0.563585 169.889 -82.714 -175.713
RightUpLeg  -1.91041 -9.65405 -1.31649
RightLeg  12.1206 -5.21869 5.25553
RightFoot  -3.57351 0.280877 -4.47606
RightToes  -1.33073e-015 0 -3.6325e-017
Spine  11.4303 1.80161 10.1091
Spine1  2.07505 3.22057 -2.43445
HEad  -0.831136 6.53591 -2.3099
LeftShoulder1  5.5706 -9.90892 -35.4446
LeftArm  -13.8205 19.6392 -14.6888
LeftForeArm  31.7865 -7.55791 -2.62392
LeftHand  -0.244104 0.0205437 5.32207
RightShoulder  2.9799 6.03787 25.1217
RightArm  -21.5101 -7.59878 19.8972
RightForeArm  7.16868 12.2 3.62707
RightHand  -1.71367 5.54005 -18.3521
LeftUpLeg  -10.4013 10.2339 -0.897291
LeftLeg  10.4556 4.67535 -0.191694
LeftFoot  2.26131 -0.110371 0.803776
LeftToes  -7.82198e-011 2.46994e-011 -7.94165e-012
246
root  -67.0661 40.9859 -0.578109 164.143 -83.5925 -170.407
RightUpLeg  -0.782883 -12.399 -1.42053
RightLeg  13.7556 -3.29559 5.04225
RightFoot  -5.12163 0.155577 -3.49355
RightToes  -1.33073e-015 0 -3.6325e-017
Spine  11.073 1.73518 8.68461
Spine1  1.28029 2.7035 -0.838367
HEad  1.35877 6.88117 -1.72572
LeftShoulder1  4.70995 -8.97781 -31.6798
LeftArm  -14.331 19.6095 -12.4632
LeftForeArm  31.1021 -7.57074 -2.28258
LeftHand  -0.244104 0.0205437 5.32207
RightShoulder  2.48756 5.16881 22.4013
RightArm  -22.4577 -6.57163 16.4793
RightForeArm  5.89142 10.3523 3.31815
RightHand  -1.7356 5.69373 -18.3321
LeftUpLeg  -9.14547 8.34219 -0.835306
LeftLeg  10.0093 5.68103 -0.537261
LeftFoot  3.57101 -0.729155 5.4577
LeftToes  -7.82198e-011 2.46994e-011 -7.94165e-012
247
root  -67.6966 40.9468 -0.633204 160.291 -84.9189 -167.157
RightUpLeg  -0.141627 -18.2636 -1.86288
RightLeg  16.6244 1.49265 4.09353
RightFoot  -6.62567 0.0625928 -2.60158
RightToes  -1.33073e-015 0 -3.6325e-017
Spine  10.9041 1.7105 5.79907
Spine1  0.986556 1.94631 1.86181
HEad  2.5754 6.83648 -1.00332
LeftShoulder1  3.93673 -7.8474 -28.5808
LeftArm  -15.1192 18.5587 -10.0398
LeftForeArm  29.9416 -8.29717 -2.066
LeftHand  -0.244104 0.0205437 5.32207
RightShoulder  1.91694 3.93033 19.3481
RightArm  -23.2649 -5.37393 13.7798
RightForeArm  4.4914 9.05605 3.04294
RightHand  -1.84935 6.12115 -18.7949
LeftUpLeg  -8.13825 8.30957 -1.04057
LeftLeg  11.1324 4.26924 -0.448962
LeftFoot  3.02314 -0.892303 6.91731
LeftToes  -7.82198e-011 2.46994e-011 -7.94165e-012
248
root  -68.2633 40.9403 -0.676517 161.634 -85.9308 -169.03
RightUpLeg  -0.665929 -24.1454 -2.67718
RightLeg  20.8347 6.87662 3.08298
RightFoot  -7.0795 -0.0054678 -1.13194
RightToes  -1.33073e-015 0 -3.6325e-017
Spine  11.2261 1.78807 3.43017
Spine1  0.144999 1.67812 2.82843
HEad  3.57805 6.3133 0.433049
LeftShoulder1  3.34899 -7.22763 -24.9983
LeftArm  -15.883 17.5033 -7.72813
LeftForeArm  29.206 -9.47465 -1.9485
LeftHand  -0.244104 0.0205437 5.32207
RightShoulder  1.51831 2.90351 17.0711
RightArm  -23.3902 -5.18862 11.2247
RightForeArm  3.08478 8.34366 2.93605
RightHand  -2.04018 6.78588 -19.5849
LeftUpLeg  -7.0293 9.11534 -1.11321
LeftLeg  11.9446 2.719 -0.826755
LeftFoot  2.08897 -0.733715 6.11638
LeftToes  -7.82198e-011 2.46994e-011 -7.94165e-012
249
root  -68.7766 40.9529 -0.666064 169.108 -86.148 -176.649
RightUpLeg  -2.79865 -23.1628 -3.80308
RightLeg  26.3105 6.8938 3.40847
RightFoot  -5.86049 -0.20034 3.12295
RightToes  -1.33073e-015 0 -3.6325e-017
Spine  11.4974 2.01269 2.08676
Spine1  -0.977235 1.88068 2.30217
HEad  4.57473 5.7061 1.78736
LeftShoulder1  2.89278 -6.77167 -21.7506
LeftArm  -16.476 16.0983 -5.18576
LeftForeArm  29.6229 -10.686 -1.89546
LeftHand  -0.244104 0.0205437 5.32207
RightShoulder  1.17294 1.94024 14.7627
RightArm  -23.0138 -5.21755 9.2128
RightForeArm  2.24627 7.48994 2.89454
RightHand  -2.20519 7.41598 -20.1182
LeftUpLeg  -5.99263 9.50718 -1.24139
LeftLeg  11.9126 2.41105 -1.54393
LeftFoot  1.50583 -0.657306 5.75533
LeftToes  -7.82198e-011 2.46994e-011 -7.94165e-012
250
root  -69.2348 40.9238 -0.626016 179.757 -85.7854 172.882
RightUpLeg  -5.8599 -20.9042 -5.37013
RightLeg  32.4888 7.1121 4.63106
RightFoot  -3.77646 -0.704535 10.2175
RightToes  -1.33073e-015 0 -3.6325e-017
Spine  11.6826 2.36416 0.921565
Spine1  -2.22835 2.19437 1.77124
HEad  5.54785 5.11309 2.4075
LeftShoulder1  2.45096 -5.99722 -19.3001
LeftArm  -17.2098 14.1521 -2.73684
LeftForeArm  30.3101 -11.7842 -1.86207
LeftHand  -0.244104 0.0205437 5.32207
RightShoulder  0.799643 0.74911 11.3596
RightArm  -22.9285 -4.84642 8.42502
RightForeArm  2.2059 6.27375 2.72472
RightHand  -2.26443 7.78185 -20.0876
LeftUpLeg  -5.42082 8.95224 -1.73668
LeftLeg  11.919 3.42143 -2.1246
LeftFoot  0.881506 -0.704927 6.53322
LeftToes  -7.82198e-011 2.46994e-011 -7.94165e-012
251
root  -69.64 40.8382 -0.595837 -170.335 -85.3561 163.166
RightUpLeg  -8.73162 -18.281 -7.10675
RightLeg  37.7455 7.20744 5.6811
RightFoot  -2.76272 -1.23938 16.2781
RightToes  -1.33073e-015 0 -3.6325e-017
Spine  11.7915 2.73019 -0.597539
Spine1  -2.97996 2.30389 2.22596
HEad  5.8445 4.56382 2.08606
LeftShoulder1  2.06608 -4.88469 -17.8136
LeftArm  -18.4305 11.8402 -0.637168
LeftForeArm  30.0863 -12.8509 -1.82204
LeftHand  -0.244104 0.0205437 5.32207
RightShoulder  0.39425 -0.730103 6.82833
RightArm  -23.8977 -4.15633 8.94569
RightForeArm  2.68118 5.35302 2.33712
RightHand  -2.2794 7.99115 -19.9133
LeftUpLeg  -5.35113 8.24165 -2.40525
LeftLeg  12.7265 4.62391 -2.43737
LeftFoot  -0.185282 -0.70455 7.20981
LeftToes  -7.82198e-011 2.46994e-011 -7.94165e-012
252
root  -70.0124 40.8454 -0.578785 -165.499 -85.2178 158.399
RightUpLeg  -10.3948 -15.5878 -8.36362
RightLeg  40.0774 5.75754 4.89449
RightFoot  -3.33429 -1.24837 17.3486
RightToes  -1.33073e-015 0 -3.6325e-017
Spine  12.0915 2.38652 -0.675695
Spine1  -3.71792 2.24198 0.21631
HEad  5.64828 4.36608 3.12793
LeftShoulder1  1.3203 -3.43214 -11.9457
LeftArm  -20.6453 10.9613 -2.01526
LeftForeArm  30.7649 -14.2889 -1.61979
LeftHand  -0.244104 0.0205437 5.32207
RightShoulder  0.437631 -0.577291 7.3403
RightArm  -24.225 -3.54914 5.91474
RightForeArm  1.76985 4.92937 2.21972
RightHand  -2.37405 8.35689 -20.1779
LeftUpLeg  -4.75389 7.69517 -2.62234
LeftLeg  12.6528 5.39024 -2.78382
LeftFoot  -0.783446 -0.6627 7.2129
LeftToes  -7.82198e-011 2.46994e-011 -7.94165e-012
253
root  -70.3754 40.964 -0.574896 -167.729 -85.4049 160.686
RightUpLeg  -10.7662 -13.0468 -8.76775
RightLeg  39.1329 2.2078 1.68667
RightFoot  -4.80459 -0.847056 14.1309
RightToes  -1.33073e-015 0 -3.6325e-017
Spine  12.0155 2.22484 -0.595568
Spine1  -3.70242 2.03677 0.59739
HEad  4.88877 4.22411 2.43688
LeftShoulder1  1.08927 -2.70006 -10.21
LeftArm  -23.2308 9.91139 -1.21235
LeftForeArm  31.9141 -15.8582 -1.47869
LeftHand  -0.244104 0.0205437 5.32207
RightShoulder  0.29511 -1.21924 5.11678
RightArm  -24.9472 -3.18171 5.23484
RightForeArm  0.553069 5.22167 2.1716
RightHand  -2.57146 8.79147 -21.1519
LeftUpLeg  -3.61444 6.89924 -2.20988
LeftLeg  11.4626 6.02625 -3.17552
LeftFoot  -0.735305 -0.657975 7.1264
LeftToes  -7.82198e-011 2.46994e-011 -7.94165e-012
